HIERARCHY
ROOT Hips
{
	OFFSET 102.063210 106.773613 -16.158522
	CHANNELS 6 Xposition Yposition Zposition Xrotation Yrotation Zrotation
	JOINT Chest
	{
		OFFSET -1.076332 13.480690 1.807401
		CHANNELS 3 Xrotation Yrotation Zrotation
		JOINT Chest2
		{
			OFFSET -5.050034 20.094818 5.455461
			CHANNELS 3 Xrotation Yrotation Zrotation
			JOINT Chest3
			{
				OFFSET -5.742523 13.579544 2.332263
				CHANNELS 3 Xrotation Yrotation Zrotation
				JOINT Neck
				{
					OFFSET -4.772102 16.305832 3.156401
					CHANNELS 3 Xrotation Yrotation Zrotation
					JOINT Head
					{
						OFFSET -3.882385 9.164185 3.282138
						CHANNELS 3 Xrotation Yrotation Zrotation
						End Site
						{
							OFFSET -3.903076 9.179626 3.213755
						}
					}
				}
				JOINT LeftCollar
				{
					OFFSET 1.189247 13.737061 3.418084
					CHANNELS 3 Xrotation Yrotation Zrotation
					JOINT LeftUpArm
					{
						OFFSET 9.770386 6.017883 -13.297518
						CHANNELS 3 Xrotation Yrotation Zrotation
						JOINT LeftLowArm
						{
							OFFSET 31.540199 -0.402588 -12.032507
							CHANNELS 3 Xrotation Yrotation Zrotation
							JOINT LeftHand
							{
								OFFSET 29.674103 -4.496231 0.421949
								CHANNELS 3 Xrotation Yrotation Zrotation
								End Site
								{
									OFFSET 6.485458 -0.982681 0.092216
								}
							}
						}
					}
				}
				JOINT RightCollar
				{
					OFFSET -6.080009 10.984848 6.646441
					CHANNELS 3 Xrotation Yrotation Zrotation
					JOINT RightUpArm
					{
						OFFSET -15.965172 -6.965393 -2.256758
						CHANNELS 3 Xrotation Yrotation Zrotation
						JOINT RightLowArm
						{
							OFFSET -27.191902 -15.333740 12.853451
							CHANNELS 3 Xrotation Yrotation Zrotation
							JOINT RightHand
							{
								OFFSET -14.822037 -5.218216 25.574045
								CHANNELS 3 Xrotation Yrotation Zrotation
								End Site
								{
									OFFSET -3.239511 -1.140457 5.589466
								}
							}
						}
					}
				}
			}
		}
	}
	JOINT LeftUpLeg
	{
		OFFSET 8.387817 1.380928 -5.306290
		CHANNELS 3 Xrotation Yrotation Zrotation
		JOINT LeftLowLeg
		{
			OFFSET -0.125099 -46.251442 -10.236113
			CHANNELS 3 Xrotation Yrotation Zrotation
			JOINT LeftFoot
			{
				OFFSET -16.004005 -35.940414 -21.277367
				CHANNELS 3 Xrotation Yrotation Zrotation
				JOINT LeftToe
				{
					OFFSET 8.701424 -21.660093 3.832134
					CHANNELS 3 Xrotation Yrotation Zrotation
					End Site
					{
						OFFSET 16.675568 -11.028722 12.643250
					}
				}
			}
		}
	}
	JOINT RightUpLeg
	{
		OFFSET -8.387802 -1.381126 5.306266
		CHANNELS 3 Xrotation Yrotation Zrotation
		JOINT RightLowLeg
		{
			OFFSET 13.257057 -42.160194 17.052282
			CHANNELS 3 Xrotation Yrotation Zrotation
			JOINT RightFoot
			{
				OFFSET 8.838234 -43.090755 -8.102592
				CHANNELS 3 Xrotation Yrotation Zrotation
				JOINT RightToe
				{
					OFFSET 1.853172 -20.669077 11.353926
					CHANNELS 3 Xrotation Yrotation Zrotation
					End Site
					{
						OFFSET -0.405159 -8.926725 21.902180
					}
				}
			}
		}
	}
}
MOTION
Frames: 13
Frame Time: 0.033333
-0.161354 106.130203 -1.111895 -7.279220 -31.972898 -9.350379 -11.788402 -1.797534 -6.748601 0.150815 5.622835 -5.356742 -2.860500 2.327256 7.310425 -2.638644 12.693140 -5.759071 -0.000000 -0.000000 -0.000003 2.260275 3.990413 -6.453724 5.863633 1.261991 24.275380 2.241351 21.647832 7.134273 0.000000 0.000000 -0.000000 4.881969 1.817649 -7.976157 -3.011189 -1.427689 -1.605235 28.661451 -26.341919 4.965075 -0.000001 -0.000001 -0.000001 -0.467461 -3.839846 9.972668 -11.630057 1.701224 17.314495 -9.819630 -16.219153 -10.206112 -0.000000 0.000003 -0.000000 24.934012 -0.416613 -18.791578 -22.112302 -9.925668 2.505557 -33.624536 27.959192 26.164472 -0.000001 -0.000001 0.000000 
-2.087540 105.584885 -1.109412 -1.491764 -33.910865 -11.394154 -4.568346 0.994472 -6.604337 -5.605736 2.985316 -2.136863 2.678402 9.492774 1.356444 -8.160407 4.092669 -2.285272 0.000000 0.000001 -0.000003 -4.815772 0.617489 -26.420017 -6.914277 -6.168276 -34.860725 16.547315 -1.493971 1.899970 0.000000 -0.000004 0.000002 11.255361 6.836824 14.155147 16.645253 21.873553 44.882239 23.632577 -1.261337 0.375567 -0.000002 -0.000004 0.000005 -4.266931 -1.921507 9.638641 -8.340601 2.301063 14.748933 -10.434927 -10.348849 -5.822166 0.000002 0.000003 0.000000 23.894916 -0.213439 -11.656029 -16.057778 -11.270507 -0.954365 -29.786346 23.926969 28.266559 -0.000001 -0.000001 -0.000001 
-2.089912 105.589897 -1.110678 -1.315701 -33.575690 -11.382725 -4.854174 0.921868 -6.311085 -4.887140 3.202400 -2.457438 2.211778 9.170877 1.429575 -8.140287 4.026508 -2.261024 -0.000001 0.000000 -0.000001 -4.587423 0.083754 -26.614467 -6.911410 -6.108612 -34.803519 16.482621 -1.788256 2.230100 0.000001 -0.000002 0.000000 11.317732 6.635643 14.328840 16.664931 21.747286 44.679331 23.437389 -1.057974 0.409322 0.000000 -0.000001 -0.000004 -4.507364 -2.031970 9.845642 -8.329966 2.251006 14.705389 -10.215031 -10.337151 -6.234925 0.000001 0.000003 -0.000000 23.742142 -0.178987 -11.610607 -15.967358 -11.179829 -0.787766 -29.484656 23.590749 27.756492 -0.000003 0.000000 -0.000001 
-2.090782 105.590889 -1.109448 -1.102195 -33.603288 -11.362223 -4.837035 0.936157 -6.367946 -5.700529 2.910945 -2.023114 2.782798 9.332542 1.219015 -7.770386 4.280139 -2.421397 -0.000000 0.000001 -0.000003 -4.643315 0.238921 -26.537127 -6.933119 -6.089448 -34.932538 16.535094 -1.698315 2.273522 -0.000002 -0.000000 -0.000000 11.308101 6.620211 14.279217 16.645518 21.842132 44.605312 23.703086 -1.331085 0.529073 -0.000002 -0.000001 -0.000003 -4.567271 -2.053333 9.875816 -8.431330 2.271487 14.740383 -10.346326 -10.424270 -6.283874 0.000000 0.000002 -0.000000 23.562954 -0.150801 -11.522101 -16.014123 -11.197733 -0.765048 -29.217521 23.590015 27.566529 0.000001 -0.000000 0.000000 
-2.094948 105.592026 -1.109060 -0.991715 -33.890791 -11.310478 -5.085275 0.925914 -6.353633 -5.466390 3.056144 -2.251999 2.599173 9.583199 1.454496 -7.787880 4.178244 -2.434435 -0.000000 0.000001 -0.000003 -4.676145 0.037197 -26.603097 -6.965613 -5.988697 -34.788988 16.454790 -1.473910 2.077266 0.000003 -0.000002 0.000002 11.272989 6.509084 14.436209 16.789763 21.469988 44.466929 23.642749 -1.009708 0.554357 -0.000002 0.000001 -0.000007 -4.538191 -2.008713 9.780699 -8.456297 2.323110 14.698186 -10.269791 -10.313158 -6.032006 0.000000 0.000000 -0.000003 23.595295 -0.186473 -11.575655 -16.015602 -11.176392 -0.894171 -29.524674 23.771647 27.941010 0.000001 0.000001 -0.000000 
-2.099045 105.593285 -1.111167 -1.203771 -34.099385 -11.281503 -4.964332 0.965055 -6.474001 -5.412192 3.142090 -2.390397 2.463048 9.628048 1.642860 -7.691905 4.268644 -2.582419 -0.000002 -0.000000 -0.000005 -4.864900 0.323845 -26.657834 -6.917742 -6.058126 -34.559753 16.343128 -1.378510 1.823479 0.000002 0.000000 -0.000001 11.281638 6.583210 14.544471 16.770240 21.370081 44.298073 23.715559 -1.057151 0.651996 0.000003 -0.000004 -0.000000 -4.457693 -1.919703 9.678571 -8.344989 2.394487 14.611723 -10.290192 -10.253569 -5.808807 -0.000001 0.000007 -0.000000 23.729681 -0.257756 -11.652416 -15.995625 -11.245749 -1.026589 -29.821002 24.056109 28.321943 -0.000001 0.000000 0.000001 
-2.108162 105.595802 -1.108685 -1.263367 -34.024939 -11.240410 -5.022056 0.957312 -6.465532 -5.564674 3.044181 -2.317095 2.457078 9.542623 1.703768 -7.386324 4.397550 -2.840673 -0.000001 0.000002 -0.000004 -4.782997 0.306395 -26.540034 -6.948732 -5.707680 -34.593351 16.417835 -1.354212 1.604862 0.000000 -0.000001 -0.000001 11.256357 6.730841 14.540248 16.843887 21.217530 44.243568 23.882221 -1.061264 0.622684 0.000002 -0.000001 -0.000003 -4.407373 -1.832184 9.632513 -8.411789 2.331946 14.713681 -10.586164 -10.365483 -5.857043 -0.000001 -0.000002 -0.000000 23.874453 -0.334143 -11.742880 -16.047471 -11.291036 -0.996243 -29.957343 24.256399 28.520539 -0.000003 -0.000000 -0.000001 
-2.115494 105.592186 -1.105807 -0.972824 -33.769982 -11.109507 -5.033688 0.986858 -6.601076 -5.441152 3.017491 -2.281461 2.401099 9.486919 1.683958 -7.675094 4.295888 -2.732314 -0.000000 -0.000000 -0.000005 -4.758646 0.531424 -26.270933 -6.906917 -5.923427 -34.755633 16.559225 -1.478318 1.375194 0.000001 -0.000001 -0.000000 11.365699 6.337059 14.468724 17.114719 21.214532 44.156790 24.040611 -0.930930 0.557008 0.000004 -0.000002 -0.000003 -4.320899 -1.852283 9.535812 -8.531935 2.286242 14.857084 -10.798882 -10.530781 -6.063623 0.000001 0.000000 -0.000000 23.931257 -0.329233 -11.907089 -16.133216 -11.295065 -0.846236 -30.018275 24.087130 28.466144 -0.000001 -0.000001 -0.000000 
-2.127785 105.587547 -1.100469 -0.676867 -33.669172 -11.003968 -5.184862 0.972502 -6.556961 -5.975744 2.752055 -1.936564 2.993350 9.414527 1.268806 -7.733833 4.248598 -2.771658 -0.000001 0.000000 -0.000003 -5.107338 0.967474 -26.216515 -6.927459 -5.653556 -34.492869 16.288145 -1.971409 1.286649 0.000001 -0.000001 -0.000001 11.307221 6.286393 14.535549 17.302199 20.834672 44.211528 24.278102 -1.033150 1.051273 -0.000002 -0.000004 0.000002 -4.373656 -1.845037 9.509904 -8.505080 2.275578 14.873876 -10.754511 -10.555868 -6.250199 -0.000000 0.000004 -0.000002 23.896074 -0.387981 -11.976948 -16.286046 -11.409700 -0.657814 -29.965778 24.259918 28.579839 0.000001 -0.000001 -0.000002 
-2.147530 105.585350 -1.095604 -0.719490 -33.474446 -11.015820 -5.269986 0.943440 -6.470605 -5.370809 3.021436 -2.328277 2.551008 9.330315 1.554489 -7.787492 4.093733 -2.653204 0.000000 0.000002 -0.000003 -4.887813 0.275475 -26.505095 -6.972567 -5.713092 -34.318559 16.084675 -2.003635 1.409011 0.000003 -0.000001 -0.000000 11.193509 6.670739 14.674436 17.070524 20.764735 44.084988 24.098801 -1.214034 1.165047 0.000001 -0.000002 0.000004 -4.425677 -1.924156 9.677011 -8.274011 2.244047 14.621867 -10.975610 -10.631522 -6.162813 0.000000 -0.000001 -0.000002 23.932331 -0.341275 -11.897811 -16.099801 -11.261265 -0.776818 -29.944748 24.141169 28.488027 -0.000001 -0.000001 0.000000 
-2.173340 105.589668 -1.094941 -0.874422 -33.511664 -11.060146 -4.911174 1.005194 -6.622204 -5.710623 2.897221 -2.162518 2.672241 9.543386 1.495027 -7.756252 4.028075 -2.699936 -0.000000 0.000001 -0.000001 -4.771942 -0.420695 -26.952078 -6.861232 -5.591456 -33.778086 15.873843 -2.787346 1.673066 0.000005 0.000000 -0.000001 11.171416 6.375920 14.988022 16.771997 20.563357 43.727626 24.568689 -1.378942 1.990469 0.000001 -0.000002 -0.000002 -4.604543 -1.968261 9.839365 -7.887531 2.285889 14.494015 -11.240775 -10.762222 -6.018988 0.000002 0.000002 -0.000001 23.963442 -0.353732 -11.828832 -16.098906 -11.408333 -0.718127 -29.841114 24.197207 28.392173 0.000001 -0.000001 0.000000 
-2.198021 105.594231 -1.098025 -1.156138 -33.535570 -10.982112 -4.670614 1.060964 -6.820151 -5.602902 3.030819 -2.317611 2.585322 9.413833 1.588233 -7.945199 4.048563 -2.659893 -0.000001 0.000002 -0.000004 -4.833152 -0.334702 -27.121619 -6.645693 -5.810360 -33.481690 15.975584 -3.249514 1.798132 0.000001 -0.000002 -0.000001 11.241269 6.554337 15.098174 16.639487 20.606071 43.307842 24.761850 -1.119079 2.191436 0.000000 -0.000004 -0.000005 -4.695204 -1.967003 9.798400 -7.574915 2.298844 14.355943 -11.463214 -10.822744 -5.775430 0.000000 0.000000 -0.000002 23.940786 -0.404412 -11.924411 -15.925874 -11.384187 -0.703191 -29.785919 24.111130 28.261277 -0.000005 -0.000002 -0.000001 
-2.226181 105.590790 -1.092774 -1.384353 -33.918484 -10.915104 -4.563788 1.131614 -7.082743 -5.665730 3.116261 -2.418012 2.274142 9.547869 1.941565 -7.155004 4.175354 -2.789939 -0.000000 -0.000000 -0.000005 -4.972466 0.105215 -26.788752 -6.467286 -5.654524 -33.271286 15.998781 -3.342059 0.839777 0.000002 -0.000000 -0.000001 11.082345 6.771384 14.670965 17.059775 20.312144 43.345142 25.243348 -0.634985 2.473100 -0.000002 -0.000002 0.000001 -4.310001 -1.746242 9.461537 -7.734250 2.269606 14.433959 -11.161703 -10.631556 -5.745226 0.000003 0.000004 -0.000002 24.240895 -0.508179 -12.058689 -16.075883 -11.444644 -0.895983 -29.928919 24.476649 28.669606 -0.000003 0.000000 -0.000001 
